:SAMPLES-PER-SECOND 30
:FULLY-SPECIFIED
:DEGREES
202
root  24.236 -5.2704 3.26681 145.417 -30.8588 -139.955
RightUpLeg  28.9345 43.683 3.84426
RightLeg  88.5417 34.0773 85.9412
RightFoot  -90.114 -11.9621 -15.8439
RightToes  -4.65663e-010 -1.59028e-015 9.93923e-017
Spine  61.1512 24.4585 7.91378
Spine1  -91.6734 19.9954 -1.66953
HEad  -8.55783 -8.77086 9.32443
LeftShoulder1  9.93923e-017 0 1.22299e-017
LeftArm  18.7512 8.6195 -55.8028
LeftForeArm  -54.5395 -13.9992 -2.63721
LeftHand  2.15256 10.5094 28.7548
RightShoulder  1.98785e-016 -4.96962e-017 1.55301e-017
RightArm  10.7251 -49.4433 48.3741
RightForeArm  -139.354 39.1311 -31.1925
RightHand  19.3909 -26.6752 -74.4779
LeftUpLeg  -61.9824 39.1015 40.3673
LeftLeg  107.982 -0.924227 -86.1661
LeftFoot  -74.3076 -83.3822 -102.946
LeftToes  3.34876e-009 -9.68256e-011 -6.12847e-011
203
root  16.4551 -3.11532 2.35263 154.024 -30.7415 -138.634
RightUpLeg  2.29185 51.1942 11.0552
RightLeg  82.7259 16.1108 20.8225
RightFoot  -88.6227 -10.4656 -12.837
RightToes  -4.65663e-010 -1.59028e-015 9.93923e-017
Spine  61.1205 27.317 4.61427
Spine1  -95.2908 18.2036 -1.47389
HEad  -5.75562 -9.98546 8.79689
LeftShoulder1  9.93923e-017 0 1.22299e-017
LeftArm  17.0185 6.9691 -57.8632
LeftForeArm  -81.6889 -16.9386 -2.00288
LeftHand  -0.880988 4.13727 47.937
RightShoulder  1.98785e-016 -4.96962e-017 1.55301e-017
RightArm  15.2214 -48.141 47.7834
RightForeArm  -156.977 38.3991 -31.4542
RightHand  26.7096 -27.9752 -79.2447
LeftUpLeg  -63.4065 47.1106 31.8813
LeftLeg  88.5047 -15.8596 -36.8235
LeftFoot  -24.4968 -39.3587 -150.669
LeftToes  3.34876e-009 -9.68256e-011 -6.12847e-011
204
root  11.3042 -3.40692 3.89215 155.072 -33.1851 -130.889
RightUpLeg  -11.6181 53.2836 39.5344
RightLeg  73.2012 6.70346 -14.9346
RightFoot  -61.9439 -11.4052 -26.7258
RightToes  -4.65663e-010 -1.59028e-015 9.93923e-017
Spine  62.14 26.0771 14.5562
Spine1  -90.0441 17.4644 -9.70879
HEad  -5.92764 -8.86277 8.25279
LeftShoulder1  9.93923e-017 0 1.22299e-017
LeftArm  24.5717 8.22877 -58.2947
LeftForeArm  -105.253 -22.185 2.04716
LeftHand  -7.01008 -3.82637 56.275
RightShoulder  1.98785e-016 -4.96962e-017 1.55301e-017
RightArm  22.3009 -43.8587 48.7184
RightForeArm  -157.025 33.7864 -27.8101
RightHand  -46.9598 -80.3659 55.5913
LeftUpLeg  -58.8477 42.3113 40.335
LeftLeg  64.2719 6.97701 33.4672
LeftFoot  -9.97879 31.329 -166.395
LeftToes  3.34876e-009 -9.68256e-011 -6.12847e-011
205
root  10.3073 -3.08878 3.87329 155.732 -34.3077 -130.233
RightUpLeg  -20.2025 53.7008 40.8745
RightLeg  72.1789 6.83217 -15.1243
RightFoot  -50.8119 -11.725 -33.0506
RightToes  -4.65663e-010 -1.59028e-015 9.93923e-017
Spine  62.5373 26.0002 15.976
Spine1  -87.9816 17.0311 -11.6094
HEad  -5.73061 -8.19801 7.70784
LeftShoulder1  9.93923e-017 0 1.22299e-017
LeftArm  25.0641 9.20663 -58.17
LeftForeArm  -105.507 -22.6293 2.51857
LeftHand  -6.2891 -3.02166 55.5097
RightShoulder  1.98785e-016 -4.96962e-017 1.55301e-017
RightArm  25.4349 -42.6057 49.2225
RightForeArm  -148.025 31.2543 -25.695
RightHand  -107.79 -64.6769 145.083
LeftUpLeg  -56.5446 40.3744 41.3896
LeftLeg  61.0619 19.2266 52.8561
LeftFoot  -8.81939 52.9934 -170.566
LeftToes  3.34876e-009 -9.68256e-011 -6.12847e-011
206
root  10.2895 -2.58435 3.62015 156.875 -35.0341 -132.194
RightUpLeg  -26.0678 53.7501 36.5368
RightLeg  71.8373 7.58066 -11.6863
RightFoot  -45.9727 -10.5682 -34.7974
RightToes  -4.65663e-010 -1.59028e-015 9.93923e-017
Spine  63.0302 26.0403 14.8734
Spine1  -86.6332 16.762 -11.3746
HEad  -5.4958 -7.59393 7.11288
LeftShoulder1  9.93923e-017 0 1.22299e-017
LeftArm  23.857 10.1459 -57.7927
LeftForeArm  -100.4 -22.0019 1.905
LeftHand  -3.81639 0.0712672 52.6109
RightShoulder  1.98785e-016 -4.96962e-017 1.55301e-017
RightArm  27.3216 -41.9962 49.5499
RightForeArm  -137.274 29.2696 -24.0515
RightHand  -91.2984 -53.0475 142.884
LeftUpLeg  -54.375 39.4236 39.95
LeftLeg  61.5654 23.0186 55.1992
LeftFoot  -8.08248 56.1437 -169.694
LeftToes  3.34876e-009 -9.68256e-011 -6.12847e-011
207
root  10.1922 -2.12504 3.39195 158.122 -35.99 -134.237
RightUpLeg  -31.7121 53.568 32.5909
RightLeg  70.7734 8.13167 -8.80785
RightFoot  -40.3728 -9.20418 -36.6955
RightToes  -4.65663e-010 -1.59028e-015 9.93923e-017
Spine  63.3241 26.0108 13.8426
Spine1  -85.1422 16.4021 -11.4844
HEad  -5.26724 -6.95727 6.52159
LeftShoulder1  9.93923e-017 0 1.22299e-017
LeftArm  22.8111 11.1184 -57.4256
LeftForeArm  -95.2322 -21.4381 1.41524
LeftHand  -1.71275 2.93418 49.6432
RightShoulder  1.98785e-016 -4.96962e-017 1.55301e-017
RightArm  29.0941 -41.2921 49.8866
RightForeArm  -129.622 27.5482 -22.7849
RightHand  -81.6989 -45.8454 143.928
LeftUpLeg  -52.2188 38.1226 38.445
LeftLeg  62.6418 27.925 59.8664
LeftFoot  -7.12375 61.476 -169.115
LeftToes  3.34876e-009 -9.68256e-011 -6.12847e-011
208
root  10.1034 -1.70886 3.15637 159.514 -37.2211 -136.503
RightUpLeg  -36.9401 53.0825 28.4462
RightLeg  69.1622 8.68769 -6.08627
RightFoot  -34.739 -7.59354 -38.279
RightToes  -4.65663e-010 -1.59028e-015 9.93923e-017
Spine  63.5736 25.8996 12.6146
Spine1  -83.335 16.0089 -11.7563
HEad  -5.04138 -6.29568 5.92987
LeftShoulder1  9.93923e-017 0 1.22299e-017
LeftArm  21.7541 12.1203 -57.0442
LeftForeArm  -89.4198 -20.8254 0.949475
LeftHand  0.151274 5.73068 46.2907
RightShoulder  1.98785e-016 -4.96962e-017 1.55301e-017
RightArm  30.5679 -40.5596 50.2151
RightForeArm  -129.224 26.4082 -22.0555
RightHand  -80.2034 -46.0088 142.59
LeftUpLeg  -50.2982 36.5286 36.5917
LeftLeg  64.5216 32.7268 64.8655
LeftFoot  -5.7455 66.6899 -168.047
LeftToes  3.34876e-009 -9.68256e-011 -6.12847e-011
209
root  9.91978 -1.35746 2.94766 159.336 -38.8143 -136.545
RightUpLeg  -41.0176 52.2469 26.1989
RightLeg  66.3974 9.21218 -3.76976
RightFoot  -28.9516 -5.72482 -39.4788
RightToes  -4.65663e-010 -1.59028e-015 9.93923e-017
Spine  63.4777 25.1684 12.8709
Spine1  -81.3253 15.8676 -12.6405
HEad  -4.81838 -5.60838 5.33756
LeftShoulder1  9.93923e-017 0 1.22299e-017
LeftArm  20.6863 13.1532 -56.648
LeftForeArm  -82.9294 -20.1634 0.518407
LeftHand  1.69243 8.35408 42.4504
RightShoulder  1.98785e-016 -4.96962e-017 1.55301e-017
RightArm  31.7358 -39.7967 50.5375
RightForeArm  -134.655 25.7586 -21.7489
RightHand  -84.8755 -52.3307 138.801
LeftUpLeg  -49.1852 34.5966 36.1686
LeftLeg  65.8648 36.1903 68.4576
LeftFoot  -7.141 70.5178 -169.78
LeftToes  3.34876e-009 -9.68256e-011 -6.12847e-011
210
root  10.4456 -0.428147 2.17775 -177.341 -40.2242 -170.74
RightUpLeg  -50.7196 50.7544 -3.75891
RightLeg  69.8305 10.9519 1.10054
RightFoot  -25.9266 -4.88657 -41.5462
RightToes  -4.65663e-010 -1.59028e-015 9.93923e-017
Spine  65.7173 30.0632 -8.96939
Spine1  -77.2726 11.4624 -7.72341
HEad  -4.59842 -4.8946 4.74458
LeftShoulder1  9.93923e-017 0 1.22299e-017
LeftArm  19.6083 14.2191 -56.2363
LeftForeArm  -75.7668 -19.4554 0.133935
LeftHand  2.81504 10.6472 38.0387
RightShoulder  1.98785e-016 -4.96962e-017 1.55301e-017
RightArm  32.7339 -39.0064 50.8638
RightForeArm  -140.946 25.2596 -21.6006
RightHand  -88.9802 -61.0924 132.347
LeftUpLeg  -38.4176 32.4844 10.8729
LeftLeg  82.1565 52.5328 89.275
LeftFoot  41.339 82.6714 -120.188
LeftToes  3.34876e-009 -9.68256e-011 -6.12847e-011
211
root  10.1992 0.0202663 1.86257 -171.592 -42.4962 -179.62
RightUpLeg  -52.8676 48.4389 -10.7853
RightLeg  67.4566 11.9413 3.51348
RightFoot  -21.2293 -3.18443 -42.6528
RightToes  -4.65663e-010 -1.59028e-015 9.93923e-017
Spine  65.4582 29.9343 -13.5089
Spine1  -74.6185 10.4356 -7.08834
HEad  -4.38166 -4.15352 4.15067
LeftShoulder1  9.93923e-017 0 1.22299e-017
LeftArm  18.5204 15.3196 -55.8084
LeftForeArm  -68.003 -18.7105 -0.192869
LeftHand  3.43696 12.4008 33.0372
RightShoulder  1.98785e-016 -4.96962e-017 1.55301e-017
RightArm  33.5271 -38.1863 51.1937
RightForeArm  -144.779 24.7347 -21.2635
RightHand  -87.1437 -68.8858 122.073
LeftUpLeg  -34.181 28.6677 4.80375
LeftLeg  91.7617 57.9284 100.352
LeftFoot  82.1613 85.1856 -79.0985
LeftToes  3.34876e-009 -9.68256e-011 -6.12847e-011
212
root  9.55019 0.323441 1.70616 -172.49 -45.3735 -178.939
RightUpLeg  -51.452 45.7822 -9.19294
RightLeg  62.3727 12.7849 4.73253
RightFoot  -16.0753 -1.19799 -43.5902
RightToes  -4.65663e-010 -1.59028e-015 9.93923e-017
Spine  63.7891 27.5258 -11.2687
Spine1  -71.8093 10.575 -8.15919
HEad  -4.16824 -3.38418 3.55566
LeftShoulder1  9.93923e-017 0 1.22299e-017
LeftArm  17.4229 16.4569 -55.3637
LeftForeArm  -59.794 -17.9435 -0.455157
LeftHand  3.53419 13.3822 27.5485
RightShoulder  1.98785e-016 -4.96962e-017 1.55301e-017
RightArm  33.633 -37.3189 51.5021
RightForeArm  -144.809 24.251 -20.329
RightHand  -74.6577 -73.8142 104.039
LeftUpLeg  -32.2381 23.6621 5.89393
LeftLeg  97.6593 59.3912 106.36
LeftFoot  97.2929 84.7273 -64.1165
LeftToes  3.34876e-009 -9.68256e-011 -6.12847e-011
213
root  8.72101 0.688872 1.52647 -172.867 -48.7994 -179.069
RightUpLeg  -49.0792 42.6753 -8.19267
RightLeg  56.647 13.7885 5.57054
RightFoot  -11.2613 0.733792 -45.2819
RightToes  -4.65663e-010 -1.59028e-015 9.93923e-017
Spine  61.1197 24.5313 -9.00956
Spine1  -67.5907 10.474 -9.15019
HEad  -3.95834 -2.58557 2.95929
LeftShoulder1  9.93923e-017 0 1.22299e-017
LeftArm  16.3164 17.6331 -54.9014
LeftForeArm  -51.3792 -17.1736 -0.653771
LeftHand  3.18164 13.4033 21.8314
RightShoulder  1.98785e-016 -4.96962e-017 1.55301e-017
RightArm  32.8652 -36.3972 51.7811
RightForeArm  -140.541 23.8079 -18.6788
RightHand  -55.1244 -74.7656 81.3935
LeftUpLeg  -29.8008 17.8695 6.24173
LeftLeg  104.127 61.0948 112.725
LeftFoot  105.366 84.4698 -56.1573
LeftToes  3.34876e-009 -9.68256e-011 -6.12847e-011
214
root  7.64842 1.13217 1.35824 -173.871 -52.9969 -178.518
RightUpLeg  -45.2654 38.5587 -6.48386
RightLeg  49.7926 14.5353 5.56358
RightFoot  -6.11808 1.32051 -46.5639
RightToes  -4.65663e-010 -1.59028e-015 9.93923e-017
Spine  56.5035 20.5217 -5.49481
Spine1  -61.0407 10.2368 -10.0557
HEad  -3.7521 -1.75657 2.36134
LeftShoulder1  9.93923e-017 0 1.22299e-017
LeftArm  15.2016 18.8503 -54.4206
LeftForeArm  -43.0449 -16.4194 -0.798665
LeftHand  2.54772 12.4067 16.2616
RightShoulder  1.98785e-016 -4.96962e-017 1.55301e-017
RightArm  31.227 -35.4221 52.0324
RightForeArm  -130.507 23.2646 -16.3176
RightHand  -33.3786 -71.1471 58.4385
LeftUpLeg  -26.9634 10.8023 6.8379
LeftLeg  112.409 62.7068 120.647
LeftFoot  110.939 84.3735 -50.652
LeftToes  3.34876e-009 -9.68256e-011 -6.12847e-011
